<?xml version="1.0" encoding="utf-8"?>
<!-- Generator: Adobe Illustrator 21.0.0, SVG Export Plug-In . SVG Version: 6.00 Build 0)  -->
<svg version="1.1" id="Capa_1" xmlns="http://www.w3.org/2000/svg" xmlns:xlink="http://www.w3.org/1999/xlink" x="0px" y="0px"
	 viewBox="0 0 490 490" style="enable-background:new 0 0 490 490;" xml:space="preserve">
<style type="text/css">
	.st0{fill:#232C2E;}
	.st1{fill:#FFD600;}
</style>
<g>
	<path class="st0" d="M423.9,387.9H174.4c-28.2,0-51,22.9-51,51c0,28.2,22.8,51,51,51h249.5c28.2,0,51-22.9,51-51
		C474.9,410.8,452.1,387.9,423.9,387.9z M190.7,457.6c-10.3,0-18.6-8.3-18.6-18.6c0-10.3,8.3-18.6,18.6-18.6
		c10.3,0,18.6,8.3,18.6,18.6C209.3,449.2,200.9,457.6,190.7,457.6z M263,457.6c-10.3,0-18.6-8.3-18.6-18.6
		c0-10.3,8.3-18.6,18.6-18.6c10.3,0,18.6,8.3,18.6,18.6C281.6,449.2,273.3,457.6,263,457.6z M335.3,457.6
		c-10.3,0-18.6-8.3-18.6-18.6c0-10.3,8.3-18.6,18.6-18.6s18.6,8.3,18.6,18.6C353.9,449.2,345.6,457.6,335.3,457.6z M407.7,457.6
		c-10.3,0-18.6-8.3-18.6-18.6c0-10.3,8.3-18.6,18.6-18.6c10.3,0,18.6,8.3,18.6,18.6C426.3,449.2,418,457.6,407.7,457.6z"/>
	<path class="st1" d="M414.4,133.5H261.8c-4.3,0-8.1,2.8-9.4,6.9l-5.5,18L46.7,2.3c-3.3-2.5-7.7-3-11.4-1.2
		c-3.7,1.8-6.1,5.6-6.1,9.7v224.9c-8.4,4-14.2,12.6-14.2,22.6s5.8,18.5,14.2,22.6v26c0,6,4.8,10.8,10.8,10.8c4.4,0,7.9,3.6,7.9,7.9
		c0,4.4-3.6,7.9-7.9,7.9c-2.1,0-4.1-0.8-5.6-2.3c-4.2-4.2-11-4.2-15.3,0c-4.2,4.2-4.2,11,0,15.3c5.6,5.6,13,8.6,20.9,8.6
		c16.3,0,29.5-13.2,29.5-29.5c0-12.5-7.8-23.2-18.7-27.5v-17.3c8.4-4,14.2-12.6,14.2-22.6c0-9.9-5.8-18.5-14.2-22.6v-90.8
		l145.4,178.6l-5.7,18.5c-0.9,3-0.4,6.2,1.5,8.7c1.9,2.5,4.8,4,7.9,4h214.4c5.4,0,9.8-4.4,9.8-9.8V143.3
		C424.2,137.9,419.8,133.5,414.4,133.5z M107.6,77.1l31.9,24.8h-31.9C107.6,102,107.6,77.1,107.6,77.1z M86,153.9l-24.7-30.4H86
		V153.9z M86,102H50.9V32.9L86,60.3V102z M158.4,242.9l-35.2-43.3h35.2V242.9z M158.4,178h-50.8v-54.5h50.8V178z M203.9,298.7
		L180,269.4v-69.8h54.3L203.9,298.7z M180,178v-44.4l56.9,44.4H180z M380.1,299.6c0,4.1-3.3,7.4-7.4,7.4H256.4c-2.3,0-4.5-1.1-5.9-3
		c-1.4-1.9-1.8-4.3-1.1-6.5l33.5-110.9c0.9-3.1,3.8-5.2,7-5.2h82.8c4.1,0,7.4,3.3,7.4,7.4V299.6z"/>
</g>
</svg>
